<svg xmlns="http://www.w3.org/2000/svg" width="200" height="200" viewBox="0 0 200 200">
<!-- SVG created with Arrow, by QuiverAI (https://quiver.ai) -->
  <path d="m179.1 108.6c-5.34 3.41-11.49 4.34-19.96 3.89 0.59 11.1-2.4 27.45-15.84 43.77-2.96 3.41-6.32 6.49-8.69 7.54l2.82 3.34c13.62-9.98 25.61-27.08 27.31-49.35 3.59-0.13 6.65-0.6 8.26-1.1-0.1 22.5-10.13 43.44-28.42 58.38l2.75 4.04c19.97-15.47 32.16-38.97 31.1-70.51h0.67z" fill="#fff"/>
  <path d="m20.71 108.4c-1.1 9.87-0.32 19.84 2.85 29.82l19.19-5.81c-2.19-7.31-2.77-12.25-2.14-20.14-8.47 1.01-14.43-0.5-19.9-3.87z" fill="#fff"/>
  <path d="m25.52 142.5 18.8-6.42c1.96 5.45 3.82 9.63 6.64 12.65l-15.65 12.35c-4.22-5.69-7.19-11.46-9.79-18.58z" fill="#fff"/>
  <path d="m37.53 164.4 15.88-12.01c2.9 3.81 6.21 6.9 10.38 9.6l-12 16.9c-5.38-3.7-9.95-8.42-14.26-14.49z" fill="#fff"/>
  <path d="m55.66 181.6 11.93-17.38c4.2 2.8 8.16 4.64 12.33 5.82l-6.3 21.12c-6.08-2.25-12.39-5.22-17.96-9.56z" fill="#fff"/>
  <path d="m78.01 192.5 6.19-21.36c4.95 1.43 8.78 1.88 12.95 1.88v22.32c-6.37-0.17-12.84-1.05-19.14-2.84z" fill="#fff"/>
  <path d="m101.3 173c4.95-0.28 9.4-1.28 13.84-2.33l5.75 21.81c-6.94 2.19-12.27 2.73-19.59 2.84v-22.32z" fill="#fff"/>
  <path d="m119.2 170.1c4.95-1.84 8.27-3.74 11.91-6.05l12.39 17.38c-6.09 4.68-11.37 7.3-17.95 9.33l-6.35-20.66z" fill="#fff"/>
  <path d="m170.2 51.04c-3.21 0-5.44 0.39-8.4 1.22-7.6-26.15-29.91-47.45-62.52-47.45h-0.34c-31.89 0-54.47 21.64-61.68 47.17-2.7-0.83-4.55-1.05-8.29-1.05-12.72 0-21.93 10.93-21.93 24.49 0 14.5 11.22 31.51 29.22 31.51 4.84 0 7.43-0.88 10.69-1.89-0.73 3.75-0.78 7.18-0.78 10.15 0 25.57 21.97 52.36 52.49 52.36h0.28c29.01 0 54.02-23.99 54.02-53.74 0-3.6-0.23-5.9-1.07-9.11 3.69 1.79 6.17 2.29 10.19 2.29 14.83 0 30.11-14.28 30.11-31.34 0-13.4-9.27-24.61-21.99-24.61zm-134.2 45.42c-10.83 0-19.02-11.73-19.02-21.1 0-8.61 5.9-14.12 13.22-14.12 2.64 0 3.99 0.51 5.57 1.39-0.22 2.13-0.39 3.81-0.45 6.12-1.05-0.23-1.55-0.29-2.65-0.29-6.25 0-9.57 5.17-9.23 11.29l0.34-0.23c1.34-3.54 3.41-4.92 6.53-4.92 2.31 0 3.66 0.66 5.29 1.77 0.84 7.56 3.1 13.38 5.35 19.44-1.63 0.5-2.98 0.65-4.95 0.65zm99.74-9.3c-3.97-1.85-6.88-3.01-9.95-3.73l-0.22 0.39c9.9 7.89 16.61 17.37 16.61 31.32 0 21.3-17.31 40.91-42.94 40.91h-0.28c-22.75 0-41.83-17.99-41.83-40.32 0-13.56 6.77-24.02 16.34-32.08l-0.28-0.39c-3.12 1.05-5.88 2.39-9.52 4.01-8.47-4.5-14.21-13.36-14.21-22.33 0-13.51 10.56-27.13 26.48-27.13 10.84 0 19.25 6.36 23.36 15.11 4.95-9.7 12.97-15.21 23.97-15.21 14.43 0 26.25 11.5 26.25 26.63 0 9.52-5.74 18.71-13.78 22.82zm27.03 9.3c-2.37 0-3.77-0.39-5.3-1.04 2.96-6.65 5.22-12.54 6.05-19 1.96-1.22 3.25-1.72 5.36-1.72 3.32 0 5.17 2.31 6.33 4.82l0.23-0.17c0.78-6.22-3.24-10.83-9.77-10.83-0.6 0-0.94 0.11-1.57 0.23 0.12-2.31 0-3.64-0.22-6.16 2.12-1 3.59-1.35 6.13-1.35 7.31 0 11.86 6.01 11.86 13.79 0 10.28-8.27 21.43-19.1 21.43z" fill="#fff"/>
  <path d="m76.56 58.33c-5.95 0-8.21 5.62-8.21 8.92 0 4.99 4.02 8.35 8.27 8.35 5.43 0 8.39-4.89 8.39-8.35 0-4.78-3.79-8.92-8.45-8.92z" fill="#fff"/>
  <path d="m122.4 58.33c-5.95 0-8.49 5.39-8.49 8.69 0 5 3.59 8.4 8.21 8.4 4.95 0 8.8-4.26 8.8-8 0-4.78-3.53-9.09-8.52-9.09z" fill="#fff"/>
  <path d="m83.49 85.71c-1.16 3.3 1.43 5.38 3.45 4.77 4.21-1.3 7.47 1.45 9.1 4.94 1.45-6.41-3.61-12.21-8.56-12.21-1.85 0-3.3 0.83-3.99 2.5z" fill="#fff"/>
  <path d="m112.3 83.26c-5.43-0.44-10.38 5.92-9.88 12.04 2.7-4.21 5.34-5.55 9.88-4.82 3.22 0.55 4.67-3.43 3.16-5.45-0.78-1.1-1.78-1.65-3.16-1.77z" fill="#fff"/>
  <path d="m126.4 106.5 0.17 0.44c1.21 0.39 2.16 0.99 3.22 1.99-7.77 8.47-18.61 12.58-31.16 12.58-11.87 0-22.66-4.56-29.07-11.97 1-1.45 2.01-2.1 3.12-2.71l-0.11-0.6c-1.58-0.61-2.36-0.72-3.62-0.61-4.95 0.44-6.85 5.05-6.85 9.53l0.57 0.16c0.89-1.33 1.67-2.21 3.12-2.76 7.66 9.81 18.88 15.37 32.84 15.48h0.23c13.79 0 25.94-5.9 35.16-16.19 1 0.73 1.68 1.62 2.18 3.24l0.56-0.17c0.39-5.87-2.97-9.85-7.92-9.4-0.89 0.11-1.45 0.28-2.44 0.99z" fill="#fff"/>
  <path d="m83.16 132.4c4.06 5 9.54 7.43 15.85 7.32 7.2-0.11 13.15-3.41 17.41-7.32l-0.23-0.28c-5.28 2.3-9.59 3.08-16.17 3.08-7.09 0-11.11-0.83-16.64-2.91l-0.22 0.11z" fill="#fff"/>
</svg>